<?xml version="1.0" encoding="UTF-8" standalone="no"?>
<svg
   viewBox="0 0 512 512"
   style="height: 512px; width: 512px;"
   version="1.1"
   id="svg1"
   sodipodi:docname="heart-inside.svg"
   inkscape:version="1.3.2 (091e20e, 2023-11-25, custom)"
   xmlns:inkscape="http://www.inkscape.org/namespaces/inkscape"
   xmlns:sodipodi="http://sodipodi.sourceforge.net/DTD/sodipodi-0.dtd"
   xmlns="http://www.w3.org/2000/svg"
   xmlns:svg="http://www.w3.org/2000/svg">
  <defs
     id="defs1" />
  <sodipodi:namedview
     id="namedview1"
     pagecolor="#818181"
     bordercolor="#000000"
     borderopacity="0.25"
     inkscape:showpageshadow="2"
     inkscape:pageopacity="0.0"
     inkscape:pagecheckerboard="0"
     inkscape:deskcolor="#d1d1d1"
     inkscape:zoom="0.55657038"
     inkscape:cx="-35.934359"
     inkscape:cy="263.21918"
     inkscape:window-width="1920"
     inkscape:window-height="1009"
     inkscape:window-x="2512"
     inkscape:window-y="303"
     inkscape:window-maximized="1"
     inkscape:current-layer="svg1" />
  <path
     id="path1"
     style="fill:#ffffff"
     d="M 48.679688 -57.990234 C 48.154858 -57.700773 130.85448 33.382461 149.58594 55.037109 C 169.73406 78.329502 214.07826 138.55288 118.28906 60.638672 C 104.67121 49.562014 141.20292 98.622897 189.80273 131.39062 C 206.10172 115.74688 226.21986 107.39285 244.85742 107.05469 L 244.85938 107.05273 C 259.77735 106.78173 273.71615 111.59896 283.95312 121.83594 C 306.90972 144.79253 302.6206 186.41925 274.68555 215.75195 C 280.37455 219.66977 285.46542 224.38479 289.74023 229.40625 C 315.26377 221.98064 336.16922 204.1698 347.48633 175.80469 C 350.00444 169.49341 352.93445 164.23264 356.12109 159.82617 C 321.12812 165.66292 238.58566 62.056281 226.33398 46.085938 C 213.12461 28.867184 254.79025 89.388253 250.88086 97.740234 C 244.00509 112.42951 62.847754 -43.506473 50.291016 -56.427734 C 49.235557 -57.513824 48.719377 -58.012126 48.679688 -57.990234 z M 356.12109 159.82617 C 358.85651 159.36991 361.33604 158.32454 363.43359 156.43555 C 365.52715 154.55015 366.06743 152.2671 365.61328 149.76562 C 362.29226 152.4233 359.08981 155.72106 356.12109 159.82617 z M 365.61328 149.76562 C 368.64702 147.33785 371.76966 145.40182 374.92188 144.02344 C 377.38745 142.94589 379.88159 142.17736 382.37695 141.66602 C 345.85603 116.9734 316.53125 108.7832 316.53125 108.7832 C 316.53125 108.7832 362.75149 134.00279 365.61328 149.76562 z M 382.37695 141.66602 C 396.97997 151.53944 412.70127 164.09604 428.20508 179.8125 C 426.61267 162.27229 416.94265 150.37962 405.36133 144.67773 C 398.26527 141.18563 390.31414 140.03953 382.37695 141.66602 z M 428.20508 179.8125 C 429.17755 190.5242 427.14698 203.33586 420.67188 218.14844 C 418.38458 223.38096 415.93189 228.2431 413.35938 232.82031 A 71.863677 42.320189 45.166033 0 1 442.59766 274.12109 A 71.863677 42.320189 45.166033 0 1 409.86719 325.36133 A 71.863677 42.320189 45.166033 0 1 351.98828 290.11328 C 348.49025 291.83837 344.99243 293.44434 341.51562 294.92969 C 326.97266 301.14167 312.8756 305.32724 300.76562 309.61523 C 299.50173 310.06297 298.33269 310.51905 297.10352 310.96484 C 333.39338 342.39429 383.24145 371.4954 427.56641 369.79102 C 473.19553 368.03648 530.02544 325.82592 467.25 228.45508 C 455.05406 209.53799 441.72376 193.51661 428.20508 179.8125 z M 297.10352 310.96484 C 277.64594 294.11329 262.01928 276.60215 253.38086 262.78906 C 310.46538 283.19106 309.9519 253.14814 289.74023 229.40625 C 285.62911 230.60231 281.41084 231.55671 277.08008 232.21289 C 268.98409 233.43789 260.55336 233.78919 251.85938 233.36719 C 259.36337 229.29719 266.56939 223.99992 273.10938 217.46094 C 273.66396 216.90632 274.14847 216.3159 274.68555 215.75195 C 270.39325 212.796 265.82696 210.25581 261.08594 208.46484 C 242.73268 201.53173 180.53674 172.0791 200.60742 175.85742 C 243.91915 184.01089 285.26111 177.15225 220.93359 148.91406 C 210.25198 144.2251 199.79138 138.12533 189.80273 131.39062 C 189.3284 131.84589 188.8251 132.24323 188.35742 132.71094 C 165.93546 155.1309 157.83744 185.34474 165.60742 208.80469 C 99.624606 178.47471 105.87455 176.61461 42.263672 135.80469 C 32.191689 129.3417 22.791906 126.38323 14.419922 125.99023 C 13.547924 125.95023 12.67617 125.94594 11.826172 125.96094 C -0.92380247 126.16094 -11.135092 132.3345 -17.705078 140.89648 C -28.918056 155.51146 -30.058282 177.08199 -6.7363281 195.33594 C 24.28961 219.62089 52.073712 236.34648 72.263672 254.77344 C 92.453632 273.2034 104.91142 295.39595 100.60742 324.83789 C 97.449423 346.44585 86.949899 362.83467 74.169922 376.30664 C 61.389945 389.77662 46.391151 400.76192 32.701172 412.96289 C 5.3212264 437.36285 -17.628318 464.74531 -12.361328 527.24219 C -9.0333346 566.72511 21.828176 582.35918 47.328125 579.61719 C 60.076102 578.24719 70.806141 572.24917 76.703125 562.11719 C 82.599119 551.98521 84.397856 536.71043 75.671875 514.39648 C 68.076893 494.98152 78.805911 473.56265 94.046875 457.30469 C 109.28685 441.04472 130.84371 428.48469 152.88867 432.30469 C 159.06566 433.37469 164.34314 437.02494 167.95312 441.46094 C 171.56312 445.89493 173.91764 451.04774 175.89062 456.67773 C 179.83862 467.93971 182.15964 481.38351 185.01562 495.27148 C 190.72762 523.05143 198.68012 551.24221 218.08008 563.74219 C 256.043 588.21014 293.33641 581.13165 309.98438 564.17969 C 318.30836 555.70271 321.89837 545.35167 319.10938 533.05469 C 316.31939 520.75671 306.43233 505.86466 284.85938 491.17969 C 261.19543 475.06972 252.20462 442.92188 251.01562 411.08594 C 249.82563 379.25 256.30266 347.0086 271.14062 327.05664 C 277.30256 318.77207 286.55544 314.79042 297.10352 310.96484 z M 351.98828 290.11328 C 374.31934 279.1005 396.63278 262.58149 413.35938 232.82031 A 71.863677 42.320189 45.166033 0 0 366.01562 208.17188 A 71.863677 42.320189 45.166033 0 0 359.35352 207.71289 A 71.863677 42.320189 45.166033 0 0 333.28711 259.41211 A 71.863677 42.320189 45.166033 0 0 351.98828 290.11328 z M 187.75781 266.8125 A 53.901539 53.901539 0 0 1 241.66016 320.71484 A 53.901539 53.901539 0 0 1 187.75781 374.61523 A 53.901539 53.901539 0 0 1 133.85547 320.71484 A 53.901539 53.901539 0 0 1 187.75781 266.8125 z " />
  <path
     id="path1-7"
     d="m -357.70165,-467.98918 -0.002,0.002 c -19.17998,0.348 -39.96202,9.11727 -56.5,25.65625 -22.42198,22.41998 -30.51999,52.63377 -22.75,76.09375 -65.98288,-30.33002 -59.73276,-32.19009 -123.3437,-73.00005 -10.07199,-6.46299 -19.47176,-9.42145 -27.84375,-9.81445 -0.872,-0.04 -1.74375,-0.0443 -2.59375,-0.0293 -12.74999,0.2 -22.96126,6.37356 -29.53125,14.93555 -11.21299,14.61498 -12.35323,36.18547 10.96875,54.43945 31.02597,24.28498 58.81002,41.01052 79,59.4375 20.18998,18.42998 32.64775,40.62248 28.34375,70.06445 -3.158,21.60798 -13.65751,37.99677 -26.4375,51.46875 -12.77999,13.46999 -27.77876,24.45527 -41.46875,36.65625 -27.37998,24.39998 -50.3295,51.78236 -45.0625,114.2793 3.32799,39.48296 34.18948,55.117 59.68945,52.375 12.74799,-1.37 23.47801,-7.36801 29.375,-17.5 5.896,-10.13199 7.69474,-25.40673 -1.03125,-47.7207 -7.59499,-19.41498 3.13402,-40.83382 18.375,-57.0918 15.23999,-16.25998 36.79682,-28.82 58.8418,-25 6.17699,1.07 11.45446,4.72025 15.06445,9.15625 3.61,4.434 5.96451,9.5868 7.9375,15.2168 3.948,11.26199 6.26901,24.70576 9.125,38.59375 5.712,27.77997 13.66448,55.97071 33.06446,68.4707 37.96296,24.46798 75.25631,17.38948 91.90429,0.4375 8.32399,-8.47699 11.914,-18.82801 9.125,-31.125 -2.78999,-12.29799 -12.67702,-27.19001 -34.25,-41.875 -23.66397,-16.10998 -32.65475,-48.25778 -33.84375,-80.09375 -1.19,-31.83597 5.28702,-64.07732 20.125,-84.0293 6.88,-9.24999 17.51502,-13.15141 29.625,-17.4414 12.10999,-4.288 26.20702,-8.47356 40.75,-14.68555 29.08597,-12.42599 59.66727,-32.19729 79.15625,-76.78125 17.07799,-39.06796 3.34344,-64.28671 -15.31054,-73.4707 -9.32699,-4.59 -20.13147,-5.15929 -30.43946,-0.6543 -10.30699,4.507 -20.42855,14.21927 -27.43554,31.78125 -13.13999,32.93397 -39.18828,51.67821 -70.40625,56.4082 -8.096,1.225 -16.52672,1.5763 -25.22071,1.1543 7.504,-4.07 14.71001,-9.36726 21.25,-15.90625 29.39997,-29.40197 34.24173,-72.22702 10.84375,-95.625 -10.23699,-10.23699 -24.17576,-15.0542 -39.09375,-14.7832 z m -57.10156,159.75976 a 53.901539,53.901539 0 0 1 53.90234,53.90235 53.901539,53.901539 0 0 1 -53.90234,53.90039 53.901539,53.901539 0 0 1 -53.90234,-53.90039 53.901539,53.901539 0 0 1 53.90234,-53.90235 z"
     style="fill:#ffffff" />
</svg>
